    <svg
      width="151"
      height="85"
      viewBox="0 0 151 85"
      fill="none"
      xmlns="http://www.w3.org/2000/svg"
    >
      <path
        d="M11.2254 56.0949V71.0267H2.89021V36.1176H10.9527V49.6517H11.2425C11.8334 48.0381 12.7993 46.7767 14.1402 45.8676C15.4925 44.9585 17.1459 44.504 19.1004 44.504C20.9414 44.504 22.5436 44.9131 23.9073 45.7313C25.2709 46.5381 26.3277 47.6801 27.0777 49.1574C27.8391 50.6347 28.2141 52.3619 28.2027 54.3392V71.0267H19.8675V55.9756C19.8789 54.521 19.5152 53.3847 18.7766 52.5665C18.0379 51.7483 16.9982 51.3392 15.6573 51.3392C14.7823 51.3392 14.0095 51.5324 13.3391 51.9188C12.68 52.2938 12.1629 52.8335 11.7879 53.5381C11.4243 54.2426 11.2368 55.0949 11.2254 56.0949ZM40.7865 71.4699C39.1161 71.4699 37.6331 71.1915 36.3377 70.6347C35.0536 70.0665 34.0365 69.2142 33.2865 68.0779C32.5479 66.9301 32.1786 65.4926 32.1786 63.7654C32.1786 62.3108 32.4342 61.0835 32.9456 60.0835C33.457 59.0835 34.1615 58.271 35.0592 57.646C35.957 57.021 36.9911 56.5494 38.1615 56.2313C39.332 55.9017 40.582 55.6801 41.9115 55.5665C43.4002 55.4301 44.599 55.2881 45.5081 55.1404C46.4172 54.9813 47.0763 54.7597 47.4854 54.4756C47.9058 54.1801 48.1161 53.7654 48.1161 53.2313V53.146C48.1161 52.271 47.8149 51.5949 47.2127 51.1176C46.6104 50.6404 45.7979 50.4017 44.7752 50.4017C43.6729 50.4017 42.7865 50.6404 42.1161 51.1176C41.4456 51.5949 41.0195 52.254 40.8377 53.0949L33.1502 52.8222C33.3774 51.2313 33.9627 49.8108 34.9058 48.5608C35.8604 47.2994 37.1672 46.3108 38.8263 45.5949C40.4967 44.8676 42.5024 44.504 44.8433 44.504C46.5138 44.504 48.0536 44.7029 49.4627 45.1006C50.8717 45.4869 52.099 46.0551 53.1445 46.8051C54.1899 47.5438 54.9967 48.4529 55.5649 49.5324C56.1445 50.6119 56.4342 51.8449 56.4342 53.2313V71.0267H48.5933V67.379H48.3888C47.9229 68.2654 47.3263 69.0154 46.599 69.629C45.8831 70.2426 45.0365 70.7029 44.0592 71.0097C43.0933 71.3165 42.0024 71.4699 40.7865 71.4699ZM43.3604 66.0154C44.2581 66.0154 45.0649 65.8335 45.7808 65.4699C46.5081 65.1063 47.0877 64.6063 47.5195 63.9699C47.9513 63.3222 48.1672 62.5722 48.1672 61.7199V59.2313C47.9286 59.3563 47.6388 59.4699 47.2979 59.5722C46.9683 59.6744 46.6047 59.771 46.207 59.8619C45.8092 59.9529 45.4002 60.0324 44.9797 60.1006C44.5592 60.1688 44.1558 60.2313 43.7695 60.2881C42.9854 60.4131 42.3149 60.6063 41.7581 60.8676C41.2127 61.129 40.7922 61.4699 40.4967 61.8904C40.2127 62.2994 40.0706 62.7881 40.0706 63.3563C40.0706 64.2199 40.3774 64.879 40.9911 65.3335C41.6161 65.7881 42.4058 66.0154 43.3604 66.0154ZM61.5308 71.0267V36.1176H69.8661V49.3279H70.0365C70.3774 48.5324 70.8604 47.7654 71.4854 47.0267C72.1217 46.2881 72.9286 45.6858 73.9058 45.2199C74.8945 44.7426 76.0763 44.504 77.4513 44.504C79.2695 44.504 80.9683 44.9813 82.5479 45.9358C84.1388 46.8904 85.4229 48.3619 86.4002 50.3506C87.3774 52.3392 87.8661 54.8733 87.8661 57.9529C87.8661 60.9188 87.3945 63.4017 86.4513 65.4017C85.5195 67.4017 84.2581 68.9017 82.6672 69.9017C81.0877 70.9017 79.332 71.4017 77.4002 71.4017C76.082 71.4017 74.9399 71.1858 73.974 70.754C73.0081 70.3222 72.1956 69.754 71.5365 69.0494C70.8888 68.3449 70.3888 67.5892 70.0365 66.7824H69.7808V71.0267H61.5308ZM69.6956 57.9358C69.6956 59.3449 69.8831 60.5722 70.2581 61.6176C70.6445 62.6631 71.1956 63.4756 71.9115 64.0551C72.6388 64.6233 73.5081 64.9074 74.5195 64.9074C75.5422 64.9074 76.4115 64.6233 77.1274 64.0551C77.8433 63.4756 78.3831 62.6631 78.7467 61.6176C79.1217 60.5722 79.3092 59.3449 79.3092 57.9358C79.3092 56.5267 79.1217 55.3051 78.7467 54.271C78.3831 53.2369 77.8433 52.4358 77.1274 51.8676C76.4229 51.2994 75.5536 51.0154 74.5195 51.0154C73.4967 51.0154 72.6274 51.2938 71.9115 51.8506C71.1956 52.4074 70.6445 53.2029 70.2581 54.2369C69.8831 55.271 69.6956 56.504 69.6956 57.9358ZM92.234 71.0267V44.8449H100.569V71.0267H92.234ZM96.4101 41.7938C95.2396 41.7938 94.234 41.4074 93.3931 40.6347C92.5521 39.8506 92.1317 38.9074 92.1317 37.8051C92.1317 36.7142 92.5521 35.7824 93.3931 35.0097C94.234 34.2256 95.2396 33.8335 96.4101 33.8335C97.5919 33.8335 98.5976 34.2256 99.4271 35.0097C100.268 35.7824 100.689 36.7142 100.689 37.8051C100.689 38.9074 100.268 39.8506 99.4271 40.6347C98.5976 41.4074 97.5919 41.7938 96.4101 41.7938ZM120.653 44.8449V50.9813H104.136V44.8449H120.653ZM107.596 38.5722H115.931V62.7938C115.931 63.3051 116.011 63.7199 116.17 64.0381C116.34 64.3449 116.585 64.5665 116.903 64.7029C117.221 64.8279 117.602 64.8904 118.045 64.8904C118.363 64.8904 118.698 64.8619 119.051 64.8051C119.414 64.7369 119.687 64.6801 119.869 64.6347L121.13 70.6517C120.733 70.7654 120.17 70.9074 119.443 71.0779C118.727 71.2483 117.869 71.3563 116.869 71.4017C114.914 71.4926 113.238 71.2654 111.84 70.7199C110.454 70.1631 109.392 69.2994 108.653 68.129C107.926 66.9585 107.573 65.4869 107.596 63.7142V38.5722ZM147.436 52.8392L139.782 53.0438C139.703 52.4983 139.487 52.0154 139.135 51.5949C138.782 51.1631 138.322 50.8279 137.754 50.5892C137.197 50.3392 136.549 50.2142 135.811 50.2142C134.845 50.2142 134.021 50.4074 133.339 50.7938C132.669 51.1801 132.339 51.7029 132.35 52.3619C132.339 52.8733 132.544 53.3165 132.964 53.6915C133.396 54.0665 134.163 54.3676 135.265 54.5949L140.311 55.5494C142.924 56.0494 144.867 56.879 146.14 58.0381C147.424 59.1972 148.072 60.7313 148.083 62.6404C148.072 64.4358 147.538 65.9983 146.481 67.3279C145.436 68.6574 144.004 69.6915 142.186 70.4301C140.367 71.1574 138.288 71.521 135.947 71.521C132.208 71.521 129.26 70.754 127.1 69.2199C124.953 67.6744 123.725 65.6063 123.419 63.0154L131.652 62.8108C131.833 63.7654 132.305 64.4926 133.066 64.9926C133.828 65.4926 134.799 65.7426 135.981 65.7426C137.049 65.7426 137.919 65.5438 138.589 65.146C139.26 64.7483 139.6 64.2199 139.612 63.5608C139.6 62.9699 139.339 62.4983 138.828 62.146C138.316 61.7824 137.515 61.4983 136.424 61.2938L131.856 60.4244C129.231 59.9472 127.277 59.0665 125.992 57.7824C124.708 56.4869 124.072 54.8392 124.083 52.8392C124.072 51.0892 124.538 49.5949 125.481 48.3563C126.424 47.1063 127.765 46.1517 129.504 45.4926C131.242 44.8335 133.294 44.504 135.657 44.504C139.203 44.504 141.998 45.2483 144.044 46.7369C146.089 48.2142 147.22 50.2483 147.436 52.8392Z"
        fill="white"
      />
      <rect
        x="0.748169"
        y="0.526718"
        width="15"
        height="15"
        rx="3.5"
        fill="#18181B"
        stroke="#27272A"
      />
      <rect
        x="20.7482"
        y="0.526718"
        width="15"
        height="15"
        rx="3.5"
        fill="#4C1D95"
        stroke="#6D28D9"
      />
      <rect
        x="40.7482"
        y="0.526718"
        width="15"
        height="15"
        rx="3.5"
        fill="#5B21B6"
        stroke="#7C3AED"
      />
      <rect
        x="60.7482"
        y="0.526718"
        width="15"
        height="15"
        rx="3.5"
        fill="#6D28D9"
        stroke="#8B5CF6"
      />
      <rect
        x="80.7482"
        y="0.526718"
        width="15"
        height="15"
        rx="3.5"
        fill="#7C3AED"
        stroke="#A78BFA"
      />
      <rect
        x="100.748"
        y="0.526718"
        width="15"
        height="15"
        rx="3.5"
        fill="#8B5CF6"
        stroke="#C4B5FD"
      />
    </svg>